<svg xmlns="http://www.w3.org/2000/svg" xmlns:xlink="http://www.w3.org/1999/xlink" viewBox="0 0 414 736"><defs><style>.cls-1,.cls-5,.cls-6{fill:#f4f4f1;}.cls-2{font-size:21.22px;letter-spacing:0.2em;}.cls-2,.cls-4,.cls-7{fill:#4c4b4b;}.cls-10,.cls-2,.cls-4,.cls-5,.cls-6,.cls-7{font-family:GenSenRoundedTW-M, GenSenRounded TW;}.cls-3{fill:#636363;}.cls-4{font-size:10.61px;letter-spacing:0.05em;}.cls-5,.cls-6{font-size:9.04px;}.cls-5{letter-spacing:0.1em;}.cls-6{letter-spacing:0.1em;}.cls-7{font-size:14.97px;letter-spacing:0.13em;}.cls-8{letter-spacing:0.01em;}.cls-9{letter-spacing:0.05em;}.cls-10{font-size:8.34px;fill:#484949;}.cls-11{letter-spacing:-0.02em;}.cls-12{letter-spacing:-0.02em;}.cls-13{letter-spacing:-0.02em;}.cls-14{letter-spacing:-0.01em;}.cls-15{letter-spacing:-0.02em;}</style></defs><title>Asset 102</title><g id="Layer_2" data-name="Layer 2"><g id="Layer_1-2" data-name="Layer 1"><rect class="cls-1" width="414" height="736"/><text class="cls-2" transform="translate(172.87 33.65)">張玳瑋</text><rect class="cls-3" x="78" y="64.59" width="70.07" height="17.35" rx="7.52"/><text class="cls-4" transform="translate(169.32 52.11)"><tspan xml:space="preserve"> Debbie Chang</tspan></text><text class="cls-5" transform="translate(98.63 76.22)">關於我</text><rect class="cls-3" x="173.9" y="64.26" width="70.07" height="17.35" rx="7.52"/><text class="cls-6" transform="translate(194.53 75.9)">聯絡我</text><rect class="cls-3" x="265.93" y="64.26" width="70.07" height="17.35" rx="7.52"/><text class="cls-6" transform="translate(286.56 75.9)">了解我</text><image width="4032" height="4027" transform="translate(152 141) scale(0.03)" xlink:href="../../../../../Downloads/IMG_6211.JPG"/><text class="cls-7" transform="translate(102.8 114.78)">用聲音閱讀世界：<tspan class="cls-8" x="134.71" y="0">D</tspan><tspan class="cls-9" x="145.24" y="0">J Debbie</tspan></text><text class="cls-10" transform="translate(140.01 274.84)">我是交大網路電台<tspan class="cls-11" x="66.69" y="0">g</tspan><tspan class="cls-12" x="71.36" y="0">o</tspan><tspan class="cls-13" x="76.29" y="0">t</tspan><tspan x="79.45" y="0">o&amp;Play台長，</tspan><tspan x="12.15" y="13.43">也是愛上說話的聲音創作者。</tspan><tspan x="-21.2" y="40.29">曾製作講述菜市場的廣播節目「尚青欸抵家啦」；</tspan><tspan x="-8.69" y="53.72">也製作「人外以人聲外有聲」訪談型節目，</tspan><tspan x="-8.69" y="67.15">目前進行中的心靈成長節目「陪我聊療」，</tspan><tspan x="-12.07" y="80.58">首集獲世新大學金薈獎pod</tspan><tspan class="cls-14" x="86.92" y="80.58">c</tspan><tspan x="91.13" y="80.58">a</tspan><tspan class="cls-15" x="95.93" y="80.58">s</tspan><tspan x="99.74" y="80.58">t組第一名。</tspan></text></g></g></svg>