<svg xmlns="http://www.w3.org/2000/svg" viewBox="0 0 658 821"><defs><style>.cls-1,.cls-3{fill:#fff;stroke:#636363;stroke-miterlimit:10;}.cls-2,.cls-4{fill:#636363;}.cls-3,.cls-4{font-size:52px;font-family:GenSenRoundedTW-H, GenSenRounded TW;letter-spacing:0.1em;}</style></defs><title>Asset 67</title><g id="Layer_2" data-name="Layer 2"><g id="Layer_1-2" data-name="Layer 1"><rect class="cls-1" x="1.5" y="0.5" width="253" height="371" rx="110.08"/><rect class="cls-2" x="18.09" y="34.27" width="220.16" height="220.16" rx="110.08"/><text class="cls-3" transform="translate(72.56 120.22)">節目<tspan x="0" y="75">企劃</tspan></text><rect class="cls-1" x="404.5" y="0.5" width="253" height="371" rx="110.08"/><rect class="cls-2" x="421.09" y="34.27" width="220.16" height="220.16" rx="110.08"/><text class="cls-3" transform="translate(476.56 120.22)">後製<tspan x="0" y="75">剪輯</tspan></text><rect class="cls-1" x="0.5" y="434.5" width="253" height="371" rx="110.08"/><rect class="cls-2" x="17.09" y="468.27" width="220.16" height="220.16" rx="110.08"/><text class="cls-3" transform="translate(71.56 554.22)">訪談<tspan x="0" y="75">邀約</tspan></text><rect class="cls-1" x="404.5" y="449.5" width="253" height="371" rx="110.08"/><rect class="cls-2" x="421.09" y="483.27" width="220.16" height="220.16" rx="110.08"/><text class="cls-3" transform="translate(476.56 569.22)">社群<tspan x="0" y="75">經營</tspan></text><text class="cls-4" transform="translate(479.2 776.6)">70％</text><text class="cls-4" transform="translate(81.49 327.22)">ing</text><text class="cls-4" transform="translate(483.49 327.22)">ing</text><text class="cls-4" transform="translate(64.69 761.22)">90%</text></g></g></svg>