<svg xmlns="http://www.w3.org/2000/svg" xmlns:xlink="http://www.w3.org/1999/xlink" viewBox="0 0 396 707.39"><defs><style>.cls-1{font-size:21.22px;letter-spacing:0.2em;}.cls-1,.cls-13,.cls-24,.cls-27,.cls-3{fill:#4c4b4b;}.cls-1,.cls-10,.cls-13,.cls-16,.cls-22,.cls-24,.cls-27,.cls-3,.cls-4,.cls-5,.cls-6{font-family:GenSenRoundedTW-M, GenSenRounded TW;}.cls-2,.cls-29{fill:#636363;}.cls-3{font-size:10.61px;letter-spacing:0.05em;}.cls-4,.cls-5{font-size:9.04px;fill:#f4f4f1;}.cls-4{letter-spacing:0.1em;}.cls-5{letter-spacing:0.1em;}.cls-10,.cls-6{font-size:5.92px;fill:#424241;}.cls-6{letter-spacing:0.05em;}.cls-7{letter-spacing:0.02em;}.cls-8{letter-spacing:0.04em;}.cls-9{letter-spacing:0.02em;}.cls-10{letter-spacing:0.05em;}.cls-11{letter-spacing:0.07em;}.cls-12{fill:none;stroke:#424241;stroke-width:2px;}.cls-12,.cls-23,.cls-28{stroke-miterlimit:10;}.cls-13{font-size:14.97px;letter-spacing:0.13em;}.cls-14{letter-spacing:0.01em;}.cls-15{letter-spacing:0.05em;}.cls-16{font-size:8.34px;}.cls-16,.cls-22{fill:#484949;}.cls-17{letter-spacing:-0.02em;}.cls-18{letter-spacing:-0.02em;}.cls-19{letter-spacing:-0.02em;}.cls-20{letter-spacing:-0.01em;}.cls-21{letter-spacing:-0.02em;}.cls-22{font-size:7.46px;}.cls-23,.cls-28,.cls-30,.cls-31,.cls-32,.cls-33{fill:#fff;}.cls-23,.cls-28{stroke:#636363;}.cls-24,.cls-27{font-size:8.77px;}.cls-24{letter-spacing:0.1em;}.cls-25{letter-spacing:-0.01em;}.cls-26{letter-spacing:-0.02em;}.cls-27{letter-spacing:0.1em;}.cls-28,.cls-29{font-size:6.73px;letter-spacing:0.1em;}.cls-28,.cls-29,.cls-30,.cls-31,.cls-32,.cls-33{font-family:GenSenRoundedTW-H, GenSenRounded TW;}.cls-30{font-size:7.7px;letter-spacing:0.1em;}.cls-31{font-size:7.48px;letter-spacing:0.1em;}.cls-32{font-size:8.46px;letter-spacing:0.1em;}.cls-33{font-size:8.18px;letter-spacing:0.1em;}</style></defs><title>Asset 92</title><g id="Layer_2" data-name="Layer 2"><g id="Layer_1-2" data-name="Layer 1"><text class="cls-1" transform="translate(164.87 18.68)">張玳瑋</text><rect class="cls-2" x="70" y="49.61" width="70.07" height="17.35" rx="7.52"/><text class="cls-3" transform="translate(161.32 37.14)"><tspan xml:space="preserve"> Debbie Chang</tspan></text><text class="cls-4" transform="translate(90.63 61.25)">關於我</text><rect class="cls-2" x="165.9" y="49.29" width="70.07" height="17.35" rx="7.52"/><text class="cls-5" transform="translate(186.53 60.92)">聯絡我</text><rect class="cls-2" x="257.93" y="49.29" width="70.07" height="17.35" rx="7.52"/><text class="cls-5" transform="translate(278.56 60.92)">了解我</text><image width="512" height="512" transform="translate(12.81 698.45) scale(0.01)" xlink:href="../../../../../Downloads/email.png"/><text class="cls-6" transform="translate(23.12 704.13)">deb<tspan class="cls-7" x="11.69" y="0">r</tspan><tspan x="14.25" y="0">a060629@gmail</tspan><tspan class="cls-8" x="63.4" y="0">.</tspan><tspan class="cls-9" x="65.38" y="0">c</tspan><tspan x="68.59" y="0">om</tspan></text><text class="cls-6" transform="translate(188.86 704.13)">0968900980</text><image width="512" height="512" transform="translate(174.93 698.21) scale(0.02)" xlink:href="../../../../../Downloads/phone-call.png"/><text class="cls-10" transform="translate(340.59 704.13)">@debbbia<tspan class="cls-11" x="31.49" y="0">r</tspan><tspan x="34.34" y="0">y</tspan></text><image width="512" height="512" transform="translate(328.83 697.24) scale(0.02)" xlink:href="../../../../../Downloads/instagram-4.png"/><line class="cls-12" y1="690.23" x2="396" y2="690.23"/><image width="4032" height="4027" transform="translate(144 126.03) scale(0.03)" xlink:href="../../../../../Downloads/IMG_6211.JPG"/><text class="cls-13" transform="translate(94.8 99.81)">用聲音閱讀世界：<tspan class="cls-14" x="134.71" y="0">D</tspan><tspan class="cls-15" x="145.24" y="0">J Debbie</tspan></text><text class="cls-16" transform="translate(132.01 259.87)">我是交大網路電台<tspan class="cls-17" x="66.69" y="0">g</tspan><tspan class="cls-18" x="71.36" y="0">o</tspan><tspan class="cls-19" x="76.29" y="0">t</tspan><tspan x="79.45" y="0">o&amp;Play台長，</tspan><tspan x="12.15" y="13.43">也是愛上說話的聲音創作者。</tspan><tspan x="-21.2" y="40.29">曾製作講述菜市場的廣播節目「尚青欸抵家啦」；</tspan><tspan x="-8.69" y="53.72">也製作「人外以人聲外有聲」訪談型節目，</tspan><tspan x="-8.69" y="67.15">目前進行中的心靈成長節目「陪我聊療」，</tspan><tspan x="-12.07" y="80.58">首集獲世新大學金薈獎pod</tspan><tspan class="cls-20" x="86.92" y="80.58">c</tspan><tspan x="91.13" y="80.58">a</tspan><tspan class="cls-21" x="95.93" y="80.58">s</tspan><tspan x="99.74" y="80.58">t組第一名。</tspan></text><image width="2000" height="2000" transform="translate(112 432.52) scale(0.03)" xlink:href="../../../../../Downloads/LINE_ALBUM_220516.jpg"/><image width="500" height="500" transform="translate(112 372.03) scale(0.1)" xlink:href="../../../../../Downloads/%E5%B0%9A%E9%9D%92-5.PNG"/><image width="4501" height="4501" transform="translate(112 493.43) scale(0.01 0.01)" xlink:href="../../../../110-2%E7%AF%80%E7%9B%AE%EF%BC%9A%E9%99%AA%E6%88%91%E8%81%8A%E7%99%82/%E9%99%AA%E6%88%91%E8%81%8A%E7%99%82logo.png"/><text class="cls-22" transform="translate(195.74 404.28)">知識型廣播節目<tspan x="0" y="12.02">分享菜市場歷史、故事與何謂旅行</tspan></text><rect class="cls-23" x="195.88" y="377.02" width="71.19" height="11.28" rx="5.09"/><text class="cls-24" transform="translate(202.3 386.16)">尚青欸抵家啦</text><text class="cls-22" transform="translate(194.5 463.53)">訪談型pod<tspan class="cls-25" x="36.35" y="0">c</tspan><tspan x="40.12" y="0">a</tspan><tspan class="cls-26" x="44.41" y="0">s</tspan><tspan x="47.83" y="0">t節目</tspan><tspan x="0" y="12.02">邀請不同領域的9個人物</tspan></text><rect class="cls-23" x="194.43" y="436.27" width="86.18" height="11.28" rx="5.09"/><text class="cls-27" transform="translate(199.28 445.41)">人外有人聲外有聲</text><text class="cls-22" transform="translate(194.5 524.43)">陪伴型pod<tspan class="cls-25" x="36.35" y="0">c</tspan><tspan x="40.12" y="0">a</tspan><tspan class="cls-26" x="44.41" y="0">s</tspan><tspan x="47.83" y="0">t節目</tspan><tspan x="0" y="12.02">聊生活、療癒心情</tspan></text><rect class="cls-23" x="194.43" y="497.18" width="57.59" height="11.28" rx="5.09"/><text class="cls-24" transform="translate(201.8 506.32)">陪我聊療</text><rect class="cls-23" x="116.13" y="556.03" width="32.73" height="48" rx="16.37"/><rect class="cls-2" x="118.28" y="560.4" width="28.48" height="28.48" rx="14.24"/><text class="cls-28" transform="translate(125.32 571.52)">節目<tspan x="0" y="9.7">企劃</tspan></text><rect class="cls-23" x="235.27" y="556.03" width="32.73" height="48" rx="16.37"/><rect class="cls-2" x="237.41" y="560.4" width="28.48" height="28.48" rx="14.24"/><text class="cls-28" transform="translate(244.59 571.52)">後製<tspan x="0" y="9.7">剪輯</tspan></text><rect class="cls-23" x="116" y="612.18" width="32.73" height="48" rx="16.37"/><rect class="cls-2" x="118.15" y="616.55" width="28.48" height="28.48" rx="14.24"/><text class="cls-28" transform="translate(125.19 627.67)">訪談<tspan x="0" y="9.7">邀約</tspan></text><rect class="cls-23" x="235.27" y="614.12" width="32.73" height="48" rx="16.37"/><rect class="cls-2" x="237.41" y="618.49" width="28.48" height="28.48" rx="14.24"/><text class="cls-28" transform="translate(244.59 629.61)">社群<tspan x="0" y="9.7">經營</tspan></text><text class="cls-29" transform="translate(244.93 656.44)">70％</text><text class="cls-29" transform="translate(126.48 598.3)">ing</text><text class="cls-29" transform="translate(245.49 598.3)">ing</text><text class="cls-29" transform="translate(124.3 654.45)">90%</text><text class="cls-30" transform="translate(124.06 571.77)">節目<tspan x="0" y="11.1">企劃</tspan></text><text class="cls-31" transform="translate(243.54 571.43)">後製<tspan x="0" y="10.79">剪輯</tspan></text><text class="cls-32" transform="translate(123.38 627.83)">訪談<tspan x="0" y="12.21">邀約</tspan></text><text class="cls-33" transform="translate(243 629.23)">社群<tspan x="0" y="11.8">經營</tspan></text></g></g></svg>